HIERARCHY
ROOT Hips
{
	OFFSET 0.000000 0.000000 0.000000
	CHANNELS 6 Xposition Yposition Zposition Yrotation Xrotation Zrotation
	JOINT Chest
	{
		OFFSET 0.000000 -0.009281 11.569106
		CHANNELS 3 Yrotation Xrotation Zrotation
		JOINT Chest2
		{
			OFFSET -0.000000 0.016865 9.269641
			CHANNELS 3 Yrotation Xrotation Zrotation
			JOINT Chest3
			{
				OFFSET -0.000000 0.000001 8.374491
				CHANNELS 3 Yrotation Xrotation Zrotation
				JOINT Chest4
				{
					OFFSET -0.000000 0.000001 8.374493
					CHANNELS 3 Yrotation Xrotation Zrotation
					JOINT Neck
					{
						OFFSET -0.000000 0.000002 12.152554
						CHANNELS 3 Yrotation Xrotation Zrotation
						JOINT Head
						{
							OFFSET -0.000000 0.040101 7.802319
							CHANNELS 3 Yrotation Xrotation Zrotation
							End Site
							{
								OFFSET -0.000000 0.020947 14.853096
							}
						}
					}
					JOINT RightCollar
					{
						OFFSET 2.894404 0.000001 6.791374
						CHANNELS 3 Yrotation Xrotation Zrotation
						JOINT RightShoulder
						{
							OFFSET 13.574684 0.000001 0.000000
							CHANNELS 3 Yrotation Xrotation Zrotation
							JOINT RightElbow
							{
								OFFSET 23.923903 0.000002 0.000000
								CHANNELS 3 Yrotation Xrotation Zrotation
								JOINT RightWrist
								{
									OFFSET 19.846718 0.012767 0.000000
									CHANNELS 3 Yrotation Xrotation Zrotation
									End Site
									{
										OFFSET 14.973145 0.000001 0.000000
									}
								}
							}
						}
					}
					JOINT LeftCollar
					{
						OFFSET -2.894404 0.000001 6.791374
						CHANNELS 3 Yrotation Xrotation Zrotation
						JOINT LeftShoulder
						{
							OFFSET -13.574684 -0.000001 0.000000
							CHANNELS 3 Yrotation Xrotation Zrotation
							JOINT LeftElbow
							{
								OFFSET -23.923903 -0.000002 0.000000
								CHANNELS 3 Yrotation Xrotation Zrotation
								JOINT LeftWrist
								{
									OFFSET -19.846718 0.012763 0.000000
									CHANNELS 3 Yrotation Xrotation Zrotation
									End Site
									{
										OFFSET -14.973145 -0.000001 0.000000
									}
								}
							}
						}
					}
				}
			}
		}
	}
	JOINT RightHip
	{
		OFFSET 9.469263 0.004643 0.045487
		CHANNELS 3 Yrotation Xrotation Zrotation
		JOINT RightKnee
		{
			OFFSET 0.000000 0.002661 -40.478676
			CHANNELS 3 Yrotation Xrotation Zrotation
			JOINT RightAnkle
			{
				OFFSET 0.000000 0.049106 -35.224068
				CHANNELS 3 Yrotation Xrotation Zrotation
				JOINT RightToe
				{
					OFFSET -0.000001 12.539529 -6.151390
					CHANNELS 3 Yrotation Xrotation Zrotation
					End Site
					{
						OFFSET -0.000001 5.044994 -1.291870
					}
				}
			}
		}
	}
	JOINT LeftHip
	{
		OFFSET -9.469263 0.004641 0.045487
		CHANNELS 3 Yrotation Xrotation Zrotation
		JOINT LeftKnee
		{
			OFFSET 0.000000 0.002661 -40.478676
			CHANNELS 3 Yrotation Xrotation Zrotation
			JOINT LeftAnkle
			{
				OFFSET 0.000000 0.049106 -35.224068
				CHANNELS 3 Yrotation Xrotation Zrotation
				JOINT LeftToe
				{
					OFFSET -0.000001 12.539529 -6.151390
					CHANNELS 3 Yrotation Xrotation Zrotation
					End Site
					{
						OFFSET -0.000001 5.044994 -1.291870
					}
				}
			}
		}
	}
}
MOTION
Frames: 5
Frame Time: 0.016667
10.767775 4.954088 82.923164 -6.505211 -2.371171 -110.185534 0.849154 -1.324346 2.182607 0.369071 -0.580957 0.971239 0.369071 -0.580956 0.971241 0.277725 -0.435133 0.728777 0.158673 -16.627976 -13.090343 -4.195745 4.296980 -24.188051 6.346377 8.607223 -0.018880 52.018058 26.544898 59.009481 -31.317196 -11.142255 65.018647 -49.981883 -19.764655 18.807407 -11.015331 0.044982 -5.533872 -61.812789 33.147014 -13.536264 -4.506233 48.721112 -7.307645 53.526529 14.317844 9.189703 -0.365556 -8.942547 -0.275659 0.717896 -3.614303 0.689664 -0.245570 5.560955 -3.151923 0.192941 0.092232 0.014990 -1.063452 -8.654099 0.593602 0.054338 -4.157532 2.713421 1.227440 6.030671 1.371509 0.057891 -0.010244 -0.016541 
10.750723 5.029063 82.925659 -6.625604 -2.390270 -110.074413 0.975204 -1.339045 2.175358 0.424512 -0.586361 0.965523 0.424512 -0.586361 0.965521 0.319309 -0.439101 0.724538 0.033839 -16.725552 -12.799777 -4.313066 4.137520 -23.681640 6.374266 8.274796 -0.073838 52.486725 26.283762 58.745419 -31.428644 -11.369646 64.668484 -53.132246 -17.257216 21.361500 -11.025238 -0.070265 -5.696807 -62.248534 32.906936 -14.222494 -5.232446 49.524855 -8.154696 55.058237 14.948767 9.367280 -0.426220 -8.966335 -0.300078 0.739995 -3.771089 0.706690 -0.267533 5.576909 -3.252219 0.195599 0.099874 0.013536 -1.115593 -8.698132 0.555644 0.051732 -4.229348 2.682463 1.252473 6.030413 1.354546 0.064173 -0.009710 -0.013886 
10.740640 5.103499 82.927711 -6.743794 -2.409298 -109.959653 1.118691 -1.360820 2.145504 0.488314 -0.594688 0.950839 0.488314 -0.594688 0.950835 0.367158 -0.445257 0.713599 -0.102870 -16.805616 -12.481846 -4.446965 4.011837 -23.131233 6.357029 7.751801 -0.101938 52.947203 26.064436 58.638479 -31.028006 -11.376027 64.235204 -55.083563 -15.492783 22.927965 -11.035423 -0.150203 -5.759599 -62.728772 32.697027 -14.942897 -5.897935 50.059867 -8.921889 56.415238 15.420272 9.417498 -0.487399 -9.007385 -0.329462 0.762971 -3.899237 0.703875 -0.284380 5.588762 -3.323318 0.196091 0.102222 0.012025 -1.169046 -8.744056 0.505560 0.052046 -4.302599 2.668655 1.278340 6.035713 1.323975 0.067211 -0.009692 -0.012270 
10.733884 5.174380 82.930344 -6.857883 -2.432101 -109.843130 1.276094 -1.386754 2.107114 0.557781 -0.605119 0.933038 0.557781 -0.605119 0.933038 0.419257 -0.452990 0.700325 -0.256218 -16.874187 -12.144809 -4.607556 3.906740 -22.552859 6.403751 7.394270 -0.040216 53.249951 25.858410 58.376124 -30.255754 -11.377074 63.665088 -56.645737 -13.886067 24.369099 -11.001858 -0.240896 -5.759246 -63.266253 32.401635 -15.709001 -6.482434 50.438048 -9.582628 57.692798 15.937348 9.382008 -0.541120 -9.064076 -0.385097 0.776258 -3.999974 0.693720 -0.287033 5.596905 -3.335704 0.192540 0.099728 0.012224 -1.218625 -8.788400 0.431254 0.053844 -4.381394 2.675514 1.306636 6.049020 1.302199 0.066536 -0.011604 -0.011294 
10.729258 5.244375 82.933899 -6.968968 -2.454573 -109.737945 1.426757 -1.412310 2.077040 0.624535 -0.616046 0.919659 0.624534 -0.616047 0.919657 0.469325 -0.461097 0.690367 -0.405610 -16.944163 -11.801481 -4.758867 3.800646 -21.961526 6.492006 7.253402 0.055985 53.549913 25.618776 57.992896 -29.582004 -11.512755 62.939100 -58.437049 -11.855926 26.219662 -10.967411 -0.298537 -5.778317 -63.713569 31.945181 -16.422519 -6.992610 50.814654 -10.196683 58.907465 16.397954 9.337717 -0.591024 -9.121380 -0.433884 0.786558 -4.092599 0.660175 -0.284265 5.603727 -3.327731 0.186102 0.095458 0.013034 -1.268946 -8.828495 0.367465 0.059242 -4.467272 2.684133 1.331886 6.064702 1.266623 0.065100 -0.010635 -0.011267 
